<svg width="9" height="6" viewBox="0 0 9 6" fill="none" xmlns="http://www.w3.org/2000/svg">
<g opacity="0.8">
<path d="M8.9354 0.269027C8.88791 0.187984 8.81634 0.120058 8.72848 0.0726287C8.64062 0.0251995 8.53981 8.04265e-05 8.43702 0H0.562019C0.459132 7.82065e-05 0.358239 0.0252414 0.27032 0.0727513C0.182401 0.120261 0.110824 0.188298 0.0633784 0.269458C0.0159327 0.350617 -0.00556419 0.44179 0.00122679 0.533056C0.00801778 0.624322 0.0428368 0.712183 0.101894 0.78708L4.03939 5.78759C4.0913 5.85321 4.1602 5.90676 4.24029 5.94373C4.32037 5.9807 4.40928 6 4.49952 6C4.58976 6 4.67867 5.9807 4.75875 5.94373C4.83884 5.90676 4.90774 5.85321 4.95965 5.78759L8.89715 0.78708C8.95625 0.712115 8.99108 0.624163 8.99782 0.532812C9.00457 0.441462 8.98297 0.350218 8.9354 0.269027Z" fill="#222C4F"/>
</g>
</svg>
