<svg width="30" height="29" viewBox="0 0 30 29" fill="none" xmlns="http://www.w3.org/2000/svg">
<path d="M20.6825 7.22289H17.0821C16.4193 7.22289 15.882 7.76019 15.882 8.423V12.0233H20.6825C20.819 12.0203 20.9484 12.0838 21.0296 12.1936C21.1107 12.3034 21.1335 12.4458 21.0905 12.5754L20.2024 15.2156C20.1206 15.4579 19.8941 15.6218 19.6384 15.6237H15.882V24.6245C15.882 24.9559 15.6134 25.2245 15.282 25.2245H12.2817C11.9503 25.2245 11.6817 24.9559 11.6817 24.6245V15.6237H9.88149C9.55009 15.6237 9.28144 15.355 9.28144 15.0236V12.6234C9.28144 12.292 9.55009 12.0233 9.88149 12.0233H11.6817V8.423C11.6817 5.77179 13.8309 3.62256 16.4821 3.62256H20.6825C21.0139 3.62256 21.2825 3.89121 21.2825 4.22261V6.62283C21.2825 6.95423 21.0139 7.22289 20.6825 7.22289Z" fill="white"/>
</svg>