<svg width="29" height="29" viewBox="0 0 29 29" fill="none" xmlns="http://www.w3.org/2000/svg">
<path fill-rule="evenodd" clip-rule="evenodd" d="M19.2885 3.62256H9.68766C6.37365 3.62256 3.68712 6.30909 3.68712 9.62311V19.224C3.68712 22.538 6.37365 25.2245 9.68766 25.2245H19.2885C22.6025 25.2245 25.2891 22.538 25.2891 19.224V9.62311C25.2891 6.30909 22.6025 3.62256 19.2885 3.62256ZM23.1889 19.2241C23.1823 21.3755 21.4399 23.1179 19.2885 23.1245H9.68766C7.53629 23.1179 5.7939 21.3755 5.78731 19.2241V9.62327C5.7939 7.4719 7.53629 5.7295 9.68766 5.72291H19.2885C21.4399 5.7295 23.1823 7.4719 23.1889 9.62327V19.2241ZM20.1886 9.9233C20.8514 9.9233 21.3887 9.38599 21.3887 8.72319C21.3887 8.06038 20.8514 7.52308 20.1886 7.52308C19.5258 7.52308 18.9885 8.06038 18.9885 8.72319C18.9885 9.38599 19.5258 9.9233 20.1886 9.9233ZM14.4881 9.02323C11.5055 9.02323 9.08761 11.4411 9.08761 14.4237C9.08761 17.4063 11.5055 19.8242 14.4881 19.8242C17.4707 19.8242 19.8886 17.4063 19.8886 14.4237C19.8918 12.9904 19.3238 11.6149 18.3104 10.6015C17.2969 9.58798 15.9214 9.02003 14.4881 9.02323ZM11.1878 14.4237C11.1878 16.2464 12.6654 17.724 14.4881 17.724C16.3108 17.724 17.7884 16.2464 17.7884 14.4237C17.7884 12.601 16.3108 11.1234 14.4881 11.1234C12.6654 11.1234 11.1878 12.601 11.1878 14.4237Z" fill="white"/>
</svg>