<?xml version="1.0" encoding="UTF-8"?>
<!-- Generator: Adobe Illustrator 25.3.0, SVG Export Plug-In . SVG Version: 6.00 Build 0)  -->
<svg xmlns="http://www.w3.org/2000/svg" xmlns:xlink="http://www.w3.org/1999/xlink" version="1.1" id="Layer_1" x="0px" y="0px" width="14.7px" height="24px" viewBox="0 0 14.7 24" style="enable-background:new 0 0 14.7 24;" xml:space="preserve">
<style type="text/css">
	.st0{fill:#FFFFFF;}
</style>
<g id="Layer_1_1_">
	<g>
		<path className="st0" d="M13.7,24H1c-0.5,0-1-0.4-1-1V10.3c0-2.1,1.7-3.9,3.9-3.9h6.9c2.1,0,3.9,1.7,3.9,3.9V23    C14.7,23.6,14.2,24,13.7,24z M3.9,7.1c-1.8,0-3.2,1.4-3.2,3.2V23c0,0.2,0.1,0.3,0.3,0.3h12.7c0.2,0,0.3-0.1,0.3-0.3V10.3    c0-1.8-1.4-3.2-3.2-3.2C10.8,7.1,3.9,7.1,3.9,7.1z"/>
	</g>
	<g>
		<path className="st0" d="M10.7,7H3.9C3.7,7,3.6,6.9,3.6,6.7v-1c0-0.9,0.7-1.6,1.6-1.6h4.4c0.9,0,1.6,0.7,1.6,1.6v1l0,0    C11.1,6.9,10.9,7,10.7,7z M4.2,6.4h6.2V5.7c0-0.5-0.4-0.9-0.9-0.9H5.1c-0.5,0-0.9,0.4-0.9,0.9V6.4z"/>
	</g>
	<g>
		<path className="st0" d="M9.2,3.6H5.4c-0.2,0-0.3-0.1-0.3-0.3V1.2C5.1,0.5,5.6,0,6.3,0h2.1C9,0,9.6,0.5,9.6,1.2v2.1    C9.6,3.5,9.4,3.6,9.2,3.6z M5.7,3h3.2V1.2c0-0.3-0.2-0.6-0.6-0.6h-2C6,0.7,5.7,0.9,5.7,1.2V3z"/>
	</g>
	<g>
		<path className="st0" d="M8.3,4.7H6.4C6.2,4.7,6,4.5,6,4.3v-1C6,3.1,6.2,3,6.4,3h1.9c0.2,0,0.3,0.1,0.3,0.3v1C8.6,4.5,8.5,4.7,8.3,4.7    z M6.7,4H8V3.6H6.7V4z"/>
	</g>
</g>
<g id="Layer_2_1_">
	<g>
		<path className="st0" d="M0.8,2.6c-0.1,0-0.2,0-0.3-0.1C0.4,2.3,0.4,2.1,0.6,2c0.8-0.6,2.3-1.2,4.5-0.8h0.1c0.2,0,0.3,0.2,0.3,0.4    S5.3,1.9,5.1,1.9H5C3,1.5,1.7,2,1,2.6C0.9,2.6,0.8,2.6,0.8,2.6z"/>
	</g>
</g>
</svg>