<?xml version="1.0" encoding="UTF-8"?>
<!-- Generator: Adobe Illustrator 25.3.0, SVG Export Plug-In . SVG Version: 6.00 Build 0)  -->
<svg xmlns="http://www.w3.org/2000/svg" xmlns:xlink="http://www.w3.org/1999/xlink" version="1.1" id="Layer_1" x="0px" y="0px" width="37.5px" height="24px" viewBox="0 0 37.5 24" style="enable-background:new 0 0 37.5 24;" xml:space="preserve">
<style type="text/css">
	.st0{display:none;}
	.st1{fill:#FFFFFF;}
</style>
<g id="Layer_1_1_" className="st0">
	
		<image style="display:inline;overflow:visible;enable-background:new    ;" width="1080" height="1080" transform="matrix(1 0 0 1 -532.2562 -634)">
	</image>
</g>
<g id="Layer_2_1_">
	<g>
		<path className="st1" d="M19.5,24c-2.8,0-5.2-0.8-7.7-1.7C8.7,21.2,5.1,20,0,20v-1c5.3,0,8.9,1.3,12.1,2.4c2.6,0.9,4.8,1.7,7.4,1.7    s4.9-0.9,7.4-1.8c2.9-1.1,6.2-2.3,10.6-2.3v1c-4.2,0-7.3,1.1-10.2,2.2C24.7,23.1,22.3,24,19.5,24z"/>
	</g>
	<g>
		<path className="st1" d="M19.5,21c-2.8,0-5.2-0.8-7.7-1.7C8.6,18.2,5.1,17,0,17v-1c5.3,0,8.9,1.3,12.1,2.4c2.6,0.9,4.8,1.7,7.4,1.7    s4.9-0.9,7.4-1.8c2.9-1.1,6.2-2.3,10.6-2.3v1c-4.2,0-7.3,1.1-10.2,2.2C24.6,20.1,22.3,21,19.5,21z"/>
	</g>
	<g>
		<path className="st1" d="M18.8,16.5c-0.3,0-0.5-0.2-0.5-0.5V0.5c0-0.3,0.2-0.5,0.5-0.5s0.5,0.2,0.5,0.5V16    C19.3,16.3,19,16.5,18.8,16.5z"/>
	</g>
	<g>
		<path className="st1" d="M18.8,16.5c-0.1,0-0.3,0-0.4-0.1l-1.9-1.9c-0.2-0.2-0.2-0.5,0-0.7s0.5-0.2,0.7,0l1.9,1.9    c0.2,0.2,0.2,0.5,0,0.7C19,16.5,18.9,16.5,18.8,16.5z"/>
	</g>
	<g>
		<path className="st1" d="M18.8,16.5c-0.1,0-0.3,0-0.4-0.1c-0.2-0.2-0.2-0.5,0-0.7l1.9-1.9c0.2-0.2,0.5-0.2,0.7,0s0.2,0.5,0,0.7    l-1.9,1.9C19.1,16.5,18.9,16.5,18.8,16.5z"/>
	</g>
</g>
<g id="Layer_4">
</g>
<g id="Layer_3">
</g>
</svg>