<svg width="24" height="25" viewBox="0 0 24 25" fill="none" xmlns="http://www.w3.org/2000/svg">
<path d="M20.25 6.5C20.25 7.74264 19.2426 8.75 18 8.75V10.25C20.0711 10.25 21.75 8.57107 21.75 6.5H20.25ZM15.75 6.5C15.75 5.25736 16.7574 4.25 18 4.25V2.75C15.9289 2.75 14.25 4.42893 14.25 6.5H15.75ZM18 4.25C19.2426 4.25 20.25 5.25736 20.25 6.5H21.75C21.75 4.42893 20.0711 2.75 18 2.75V4.25ZM20.25 18.5C20.25 19.7426 19.2426 20.75 18 20.75V22.25C20.0711 22.25 21.75 20.5711 21.75 18.5H20.25ZM18 20.75C16.7574 20.75 15.75 19.7426 15.75 18.5H14.25C14.25 20.5711 15.9289 22.25 18 22.25V20.75ZM18 16.25C19.2426 16.25 20.25 17.2574 20.25 18.5H21.75C21.75 16.4289 20.0711 14.75 18 14.75V16.25ZM6 14.75C4.75736 14.75 3.75 13.7426 3.75 12.5H2.25C2.25 14.5711 3.92893 16.25 6 16.25V14.75ZM3.75 12.5C3.75 11.2574 4.75736 10.25 6 10.25V8.75C3.92893 8.75 2.25 10.4289 2.25 12.5H3.75ZM8.25 12.5C8.25 12.8631 8.16454 13.2041 8.01331 13.506L9.35443 14.1779C9.60777 13.6722 9.75 13.1016 9.75 12.5H8.25ZM8.01331 13.506C7.64299 14.2452 6.87977 14.75 6 14.75V16.25C7.4692 16.25 8.73968 15.405 9.35443 14.1779L8.01331 13.506ZM6 10.25C6.87977 10.25 7.64299 10.7548 8.01331 11.494L9.35443 10.8221C8.73968 9.59503 7.4692 8.75 6 8.75V10.25ZM8.01331 11.494C8.16454 11.7959 8.25 12.1369 8.25 12.5H9.75C9.75 11.8984 9.60777 11.3278 9.35443 10.8221L8.01331 11.494ZM9.01928 11.8289L15.6515 8.51275L14.9807 7.17111L8.34846 10.4872L9.01928 11.8289ZM18 8.75C17.1202 8.75 16.357 8.24519 15.9867 7.506L14.6456 8.17787C15.2603 9.40497 16.5308 10.25 18 10.25V8.75ZM15.9867 7.506C15.8355 7.20413 15.75 6.86313 15.75 6.5H14.25C14.25 7.10161 14.3922 7.67216 14.6456 8.17787L15.9867 7.506ZM8.34846 14.5128L14.9807 17.8289L15.6515 16.4872L9.01928 13.1711L8.34846 14.5128ZM15.75 18.5C15.75 18.1369 15.8355 17.7959 15.9867 17.494L14.6456 16.8221C14.3922 17.3278 14.25 17.8984 14.25 18.5H15.75ZM15.9867 17.494C16.357 16.7548 17.1202 16.25 18 16.25V14.75C16.5308 14.75 15.2603 15.595 14.6456 16.8221L15.9867 17.494Z" fill="#111111"/>
</svg>
