<?xml version="1.0" encoding="UTF-8"?>
<!-- Generator: Adobe Illustrator 25.3.0, SVG Export Plug-In . SVG Version: 6.00 Build 0)  -->
<svg xmlns="http://www.w3.org/2000/svg" xmlns:xlink="http://www.w3.org/1999/xlink" version="1.1" id="Layer_1" x="0px" y="0px" width="22.1px" height="24px" viewBox="0 0 22.1 24" style="enable-background:new 0 0 22.1 24;" xml:space="preserve">
<style type="text/css">
	.st0{fill:none;}
	.st1{fill:#FFFFFF;}
</style>
<g>
	<g>
		<g>
			<ellipse className="st0" cx="9.7" cy="6.1" rx="5.5" ry="5.5"/>
		</g>
		<g>
			<path className="st1" d="M9.7,1.1c2.8,0,5,2.2,5,5s-2.2,5-5,5s-5-2.2-5-5S7,1.1,9.7,1.1 M9.7,0C6.3,0,3.6,2.7,3.6,6.1     s2.7,6.1,6.1,6.1s6.1-2.7,6.1-6.1S13.1,0,9.7,0L9.7,0z"/>
		</g>
	</g>
	<g>
		<g>
			<ellipse className="st0" cx="16.2" cy="18.1" rx="5.5" ry="5.5"/>
		</g>
		<g>
			<path className="st1" d="M16.2,13c2.8,0,5.1,2.3,5.1,5.1s-2.3,5.1-5.1,5.1s-5.1-2.3-5.1-5.1S13.4,13,16.2,13 M16.2,12.2     c-3.3,0-5.9,2.6-5.9,5.9S13,24,16.2,24s5.9-2.6,5.9-5.9S19.5,12.2,16.2,12.2L16.2,12.2z"/>
		</g>
	</g>
	<g>
		<polygon className="st1" points="15.8,20.2 14.1,18.4 14.7,17.8 15.8,19 18.5,16.3 19.1,16.9   "/>
	</g>
	<path className="st1" d="M13.7,12.8c0.5-0.2,1-0.4,1.5-0.5c-1.4-0.8-3.1-1.3-4.8-1.4c-2.4-0.1-4.7,0.6-6.5,2c-2.1,1.5-3.4,3.8-3.9,6.5   C-0.1,19.7,0.2,20,0.5,20h0.1c0.3,0,0.5-0.2,0.5-0.5c0.9-5.4,5.3-7.8,9.2-7.6C11.5,12.1,12.6,12.3,13.7,12.8z"/>
</g>
</svg>