<svg width="30" height="29" viewBox="0 0 30 29" fill="none" xmlns="http://www.w3.org/2000/svg">
<path fill-rule="evenodd" clip-rule="evenodd" d="M22.5434 5.23046L24.2956 5.41047C26.3699 5.64493 27.9276 7.41551 27.8959 9.50284V19.3437C27.9276 21.4311 26.3699 23.2017 24.2956 23.4361L22.6154 23.6161C17.3728 24.1562 12.0886 24.1562 6.84597 23.6161L5.09382 23.4361C3.01945 23.2017 1.46175 21.4311 1.49349 19.3437V9.50284C1.46175 7.41551 3.01945 5.64493 5.09382 5.41047L6.77397 5.23046C12.0166 4.69043 17.3008 4.69043 22.5434 5.23046ZM13.6261 18.2878L18.2945 15.1675H18.3666C18.6181 15.0036 18.7698 14.7237 18.7698 14.4235C18.7698 14.1232 18.6181 13.8433 18.3666 13.6794L13.6981 10.5591C13.4225 10.3728 13.0666 10.3537 12.7726 10.5095C12.4787 10.6653 12.2946 10.9705 12.294 11.3032V17.5437C12.3095 17.8535 12.4833 18.1334 12.754 18.2846C13.0248 18.4358 13.3543 18.4371 13.6261 18.2878Z" fill="white"/>
</svg>